<svg width="680" height="64" viewBox="0 0 680 64" fill="none" xmlns="http://www.w3.org/2000/svg">
<rect width="680" height="64" fill="white"/>
<rect x="0.5" width="64" height="64" rx="16" fill="#E1251B"/>
<rect x="19.1666" y="21.3333" width="26.6667" height="5.33333" rx="2.66667" fill="white"/>
<rect x="19.1666" y="30.6667" width="26.6667" height="5.33333" rx="2.66667" fill="white"/>
<rect x="11.1666" y="40" width="42.6667" height="5.33333" rx="2.66667" fill="white"/>
<rect x="24.5" y="49.3333" width="16" height="5.33333" rx="2.66667" fill="white"/>
<circle cx="32.5" cy="13.3333" r="4" fill="white"/>
<path d="M111.572 54.672C100.036 54.672 91.468 45.768 91.468 34.512V34.4C91.468 23.256 99.868 14.128 111.908 14.128C119.3 14.128 123.724 16.592 127.364 20.176L121.876 26.504C118.852 23.76 115.772 22.08 111.852 22.08C105.244 22.08 100.484 27.568 100.484 34.288V34.4C100.484 41.12 105.132 46.72 111.852 46.72C116.332 46.72 119.076 44.928 122.156 42.128L127.644 47.672C123.612 51.984 119.132 54.672 111.572 54.672ZM142.164 54.56C136.508 54.56 131.86 51.312 131.86 45.376V45.264C131.86 38.712 136.844 35.688 143.956 35.688C146.98 35.688 149.164 36.192 151.292 36.92V36.416C151.292 32.888 149.108 30.928 144.852 30.928C141.604 30.928 139.308 31.544 136.564 32.552L134.436 26.056C137.74 24.6 140.988 23.648 146.084 23.648C150.732 23.648 154.092 24.88 156.22 27.008C158.46 29.248 159.468 32.552 159.468 36.584V54H151.236V50.752C149.164 53.048 146.308 54.56 142.164 54.56ZM144.74 48.68C148.716 48.68 151.404 46.496 151.404 43.416V41.904C149.948 41.232 148.044 40.784 145.972 40.784C142.332 40.784 140.092 42.24 140.092 44.928V45.04C140.092 47.336 141.996 48.68 144.74 48.68ZM166.792 54V13.12H175.304V34.904L185.272 23.984H195.464L184.04 35.8L195.856 54H186.112L178.272 41.736L175.304 44.872V54H166.792ZM212.735 54.672C203.719 54.672 197.055 48.344 197.055 39.16V39.048C197.055 30.48 203.159 23.424 211.895 23.424C221.919 23.424 226.511 31.208 226.511 39.72C226.511 40.392 226.455 41.176 226.399 41.96H205.511C206.351 45.824 209.039 47.84 212.847 47.84C215.703 47.84 217.775 46.944 220.127 44.76L224.999 49.072C222.199 52.544 218.167 54.672 212.735 54.672ZM205.399 36.64H218.223C217.719 32.832 215.479 30.256 211.895 30.256C208.367 30.256 206.071 32.776 205.399 36.64Z" fill="black"/>
</svg>
