<svg width="680" height="64" viewBox="0 0 680 64" fill="none" xmlns="http://www.w3.org/2000/svg">
<rect width="680" height="64" fill="white"/>
<rect x="1" width="64" height="64" rx="16" fill="#E1251B"/>
<rect x="17" y="21.3333" width="32" height="5.33333" rx="2.66667" fill="white"/>
<rect x="17" y="30.6667" width="32" height="5.33333" rx="2.66667" fill="white"/>
<rect x="9" y="40" width="48" height="5.33333" rx="2.66667" fill="white"/>
<rect x="25" y="49.3333" width="16" height="5.33333" rx="2.66667" fill="white"/>
<circle cx="33" cy="13.3333" r="4" fill="white"/>
<path d="M105.48 46.48C97.24 46.48 91.12 40.12 91.12 32.08V32C91.12 24.04 97.12 17.52 105.72 17.52C111 17.52 114.16 19.28 116.76 21.84L112.84 26.36C110.68 24.4 108.48 23.2 105.68 23.2C100.96 23.2 97.56 27.12 97.56 31.92V32C97.56 36.8 100.88 40.8 105.68 40.8C108.88 40.8 110.84 39.52 113.04 37.52L116.96 41.48C114.08 44.56 110.88 46.48 105.48 46.48ZM127.331 46.4C123.291 46.4 119.971 44.08 119.971 39.84V39.76C119.971 35.08 123.531 32.92 128.611 32.92C130.771 32.92 132.331 33.28 133.851 33.8V33.44C133.851 30.92 132.291 29.52 129.251 29.52C126.931 29.52 125.291 29.96 123.331 30.68L121.811 26.04C124.171 25 126.491 24.32 130.131 24.32C133.451 24.32 135.851 25.2 137.371 26.72C138.971 28.32 139.691 30.68 139.691 33.56V46H133.811V43.68C132.331 45.32 130.291 46.4 127.331 46.4ZM129.171 42.2C132.011 42.2 133.931 40.64 133.931 38.44V37.36C132.891 36.88 131.531 36.56 130.051 36.56C127.451 36.56 125.851 37.6 125.851 39.52V39.6C125.851 41.24 127.211 42.2 129.171 42.2ZM144.923 46V16.8H151.003V32.36L158.123 24.56H165.403L157.243 33L165.683 46H158.723L153.123 37.24L151.003 39.48V46H144.923ZM177.739 46.48C171.299 46.48 166.539 41.96 166.539 35.4V35.32C166.539 29.2 170.899 24.16 177.139 24.16C184.299 24.16 187.579 29.72 187.579 35.8C187.579 36.28 187.539 36.84 187.499 37.4H172.579C173.179 40.16 175.099 41.6 177.819 41.6C179.859 41.6 181.339 40.96 183.019 39.4L186.499 42.48C184.499 44.96 181.619 46.48 177.739 46.48ZM172.499 33.6H181.659C181.299 30.88 179.699 29.04 177.139 29.04C174.619 29.04 172.979 30.84 172.499 33.6Z" fill="black"/>
</svg>
